HIERARCHY
ROOT spine_down
{
	OFFSET 0.000000 0.000000 0.000000
	CHANNELS 6 Xposition Yposition Zposition Xrotation Yrotation Zrotation
	JOINT leg_up.L
	{
		OFFSET -0.558471 0.000000 -0.073760
		CHANNELS 6 Xposition Yposition Zposition Xrotation Yrotation Zrotation
		JOINT leg_low.L
		{
			OFFSET -0.337190 0.000000 -1.233882
			CHANNELS 3 Xrotation Yrotation Zrotation
			End Site
			{
				OFFSET -0.052686 0.000000 -1.812394
			}
		}
	}
	JOINT leg_up.R
	{
		OFFSET 0.547933 0.000000 -0.042149
		CHANNELS 6 Xposition Yposition Zposition Xrotation Yrotation Zrotation
		JOINT leg_low.R
		{
			OFFSET 0.463636 0.000000 -1.339253
			CHANNELS 3 Xrotation Yrotation Zrotation
			End Site
			{
				OFFSET 0.021074 0.000000 -1.749171
			}
		}
	}
	JOINT spine_up
	{
		OFFSET 0.000000 0.000000 1.000000
		CHANNELS 3 Xrotation Yrotation Zrotation
		JOINT neck
		{
			OFFSET 0.010537 -0.000000 1.022106
			CHANNELS 3 Xrotation Yrotation Zrotation
			JOINT head
			{
				OFFSET -0.021074 -0.000000 0.263429
				CHANNELS 3 Xrotation Yrotation Zrotation
				End Site
				{
					OFFSET 0.010537 -0.000000 0.842974
				}
			}
		}
		JOINT shoulder.L
		{
			OFFSET -0.231818 -0.000000 0.728097
			CHANNELS 6 Xposition Yposition Zposition Xrotation Yrotation Zrotation
			JOINT arm_up.L
			{
				OFFSET -0.748140 0.000000 -0.095866
				CHANNELS 3 Xrotation Yrotation Zrotation
				JOINT arm_low.L
				{
					OFFSET -0.716528 0.000000 -0.705991
					CHANNELS 3 Xrotation Yrotation Zrotation
					JOINT palm.L
					{
						OFFSET -0.432024 0.000000 -1.022106
						CHANNELS 3 Xrotation Yrotation Zrotation
						End Site
						{
							OFFSET -0.158058 0.000000 -0.653305
						}
					}
				}
			}
		}
		JOINT shoulder.R
		{
			OFFSET 0.347727 -0.000000 0.759709
			CHANNELS 6 Xposition Yposition Zposition Xrotation Yrotation Zrotation
			JOINT arm_up.R
			{
				OFFSET 0.632231 0.000000 -0.116941
				CHANNELS 3 Xrotation Yrotation Zrotation
				JOINT arm_low.R
				{
					OFFSET 0.684917 0.000000 -0.663842
					CHANNELS 3 Xrotation Yrotation Zrotation
					JOINT palm.R
					{
						OFFSET 0.442562 0.000000 -1.085329
						CHANNELS 3 Xrotation Yrotation Zrotation
						End Site
						{
							OFFSET 0.221281 0.000000 -0.621693
						}
					}
				}
			}
		}
	}
}
MOTION
Frames: 13
Frame Time: 0.041667
0.000000 0.000000 0.000000 -0.000000 0.000000 -0.000000 -0.558471 -0.000000 -0.073760 6.115790 -0.472142 0.044117 62.108447 -10.338842 -6.373106 0.547933 0.000000 -0.042149 -62.197574 11.544416 -12.466995 38.163474 -8.904139 6.394741 -0.000000 -0.000000 -0.000000 0.000000 -0.000000 0.000000 -0.357953 13.990595 0.048322 -0.231818 -0.000000 0.728097 -5.201607 0.166483 4.998283 -5.812134 -1.818521 5.619486 -40.471265 -4.069602 3.580215 -24.733546 -3.687694 -2.278603 0.347727 -0.000000 0.759708 19.340533 -5.868513 16.599050 15.941732 4.555147 9.108447 -13.286031 6.760622 2.014479 -23.407540 9.657636 -0.006573 
0.000000 0.000000 0.000000 -0.000000 0.000000 -0.000000 -0.558471 -0.000000 -0.073760 5.843432 -0.482170 0.095498 62.008303 -10.264646 -6.390763 0.547933 0.000000 -0.042149 -61.932460 11.477096 -12.448268 38.264424 -8.831594 6.408760 -0.000000 -0.000000 -0.000000 0.000000 -0.000000 0.000000 -0.356375 13.875598 0.047747 -0.231818 -0.000000 0.728097 -5.110382 0.208060 4.912156 -5.721419 -1.817529 5.558075 -40.359649 -4.074749 3.556056 -24.725066 -3.719571 -2.282298 0.347727 -0.000000 0.759708 19.235438 -5.864593 16.507845 15.854199 4.532346 9.050399 -13.397684 6.746119 1.996881 -23.413701 9.625203 -0.009656 
0.000000 0.000000 0.000000 -0.000000 0.000000 -0.000000 -0.558471 -0.000000 -0.073760 5.386571 -0.499540 0.181578 61.840697 -10.140322 -6.420031 0.547933 0.000000 -0.042149 -61.487801 11.364351 -12.416153 38.433386 -8.710054 6.431940 -0.000000 -0.000000 -0.000000 0.000000 -0.000000 0.000000 -0.353737 13.683029 0.046792 -0.231818 -0.000000 0.728097 -4.957462 0.277385 4.767764 -5.569498 -1.816091 5.455234 -40.172751 -4.083477 3.515620 -24.710870 -3.772932 -2.288477 0.347727 -0.000000 0.759708 19.059458 -5.857651 16.355120 15.707576 4.494367 8.953121 -13.584672 6.721922 1.967350 -23.424026 9.570913 -0.014823 
0.000000 0.000000 0.000000 -0.000000 0.000000 -0.000000 -0.558471 -0.000000 -0.073760 4.742978 -0.525175 0.302610 61.605397 -9.965476 -6.460515 0.547933 0.000000 -0.042149 -60.861569 11.205945 -12.369415 38.670656 -8.539142 6.463889 -0.000000 -0.000000 -0.000000 0.000000 -0.000000 0.000000 -0.350039 13.412431 0.045468 -0.231818 -0.000000 0.728097 -4.742252 0.374162 4.564522 -5.356028 -1.814527 5.310724 -39.910148 -4.095961 3.458848 -24.690948 -3.847881 -2.297139 0.347727 -0.000000 0.759708 18.812178 -5.847109 16.140526 15.501452 4.441427 8.816277 -13.847423 6.688073 1.925726 -23.438540 9.494663 -0.022098 
0.000000 0.000000 0.000000 -0.000000 0.000000 -0.000000 -0.558471 -0.000000 -0.073760 3.910729 -0.560342 0.458695 61.302457 -9.739857 -6.511593 0.547933 0.000000 -0.042149 -60.051973 11.001840 -12.306400 38.976201 -8.318650 6.503998 -0.000000 -0.000000 -0.000000 0.000000 -0.000000 0.000000 -0.345289 13.063667 0.043789 -0.231818 -0.000000 0.728097 -4.464312 0.497791 4.301983 -5.080906 -1.813303 5.124467 -39.571674 -4.112431 3.385761 -24.665292 -3.944434 -2.308253 0.347727 -0.000000 0.759708 18.493465 -5.832159 15.863961 15.235644 4.373917 8.639651 -14.186090 6.644728 1.871844 -23.457240 9.396442 -0.031494 
0.000000 0.000000 0.000000 -0.000000 0.000000 -0.000000 -0.558471 -0.000000 -0.073760 2.888401 -0.606644 0.649729 60.932322 -9.463439 -6.572400 0.547933 0.000000 -0.042149 -59.057811 10.752319 -12.225034 39.349615 -8.048576 6.551425 -0.000000 -0.000000 -0.000000 0.000000 -0.000000 0.000000 -0.339500 12.636980 0.041778 -0.231818 -0.000000 0.728097 -4.123413 0.647343 3.979884 -4.744323 -1.813030 4.896606 -39.157608 -4.133171 3.296479 -24.633948 -4.062477 -2.321787 0.347727 -0.000000 0.759708 18.103567 -5.811782 15.525648 14.910204 4.292442 8.423167 -14.600441 6.592130 1.805588 -23.480116 9.276368 -0.043020 
0.000000 0.000000 0.000000 -0.000000 0.000000 -0.000000 -0.558471 -0.000000 -0.073760 1.675289 -0.666005 0.875334 60.495908 -9.136450 -6.641826 0.547933 0.000000 -0.042149 -57.878511 10.458036 -12.122859 39.790090 -7.729180 6.605117 -0.000000 -0.000000 -0.000000 0.000000 -0.000000 0.000000 -0.332695 12.133046 0.039465 -0.231818 -0.000000 0.728097 -3.719588 0.821545 3.598209 -4.346834 -1.814422 4.627510 -38.668580 -4.158492 3.191222 -24.597000 -4.201791 -2.337677 0.347727 -0.000000 0.759708 17.643121 -5.784760 15.126181 14.525516 4.197799 8.166931 -15.089843 6.530625 1.726850 -23.507133 9.134680 -0.056679 
0.000000 0.000000 0.000000 -0.000000 0.000000 -0.000000 -0.558471 0.000000 -0.073760 0.271674 -0.740648 1.134785 59.994503 -8.759404 -6.718549 0.547933 0.000000 -0.042149 -56.514430 10.120138 -11.997082 40.296344 -7.361023 6.663804 -0.000000 -0.000000 -0.000000 0.000000 -0.000000 0.000000 -0.324905 11.553047 0.036883 -0.231818 -0.000000 0.728097 -3.253207 1.018766 3.157248 -3.889389 -1.818335 4.317841 -38.105772 -4.188746 3.070350 -24.554540 -4.361995 -2.355838 0.347727 -0.000000 0.759708 17.113290 -5.749694 14.666581 14.082335 4.091010 7.871306 -15.653158 6.460666 1.635587 -23.538225 8.971758 -0.072465 
0.000000 0.000000 0.000000 -0.000000 0.000000 -0.000000 -0.558471 0.000000 -0.073760 -1.320897 -0.833027 1.426924 59.429975 -8.333201 -6.801017 0.547933 0.000000 -0.042149 -54.967122 9.740348 -11.844659 40.866623 -6.945023 6.726031 -0.000000 -0.000000 -0.000000 0.000000 -0.000000 0.000000 -0.316167 10.898726 0.034073 -0.231818 -0.000000 0.728097 -2.725035 1.237010 2.657661 -3.373396 -1.825716 3.968565 -37.470886 -4.224297 2.934341 -24.506748 -4.542568 -2.376169 0.347727 -0.000000 0.759708 16.515756 -5.705048 14.148356 13.581812 3.973292 7.536891 -16.288705 6.382815 1.531818 -23.573314 8.788162 -0.090356 
0.000000 0.000000 0.000000 -0.000000 0.000000 -0.000000 -0.558471 0.000000 -0.073760 -3.099291 -0.945771 1.750077 58.804684 -7.859140 -6.887497 0.547933 0.000000 -0.042149 -53.239579 9.321087 -11.662380 41.498614 -6.482511 6.790167 -0.000000 -0.000000 -0.000000 0.000000 -0.000000 0.000000 -0.306528 10.172468 0.031080 -0.231818 -0.000000 0.728097 -2.136314 1.473922 2.100558 -2.800778 -1.837590 3.581010 -36.766273 -4.265511 2.783844 -24.453805 -4.742799 -2.398541 0.347727 -0.000000 0.759708 15.852840 -5.649179 13.573572 13.025582 3.846058 7.164593 -16.994195 6.297745 1.415645 -23.612259 8.584598 -0.110315 
0.000000 0.000000 0.000000 -0.000000 0.000000 -0.000000 -0.558471 0.000000 -0.073760 -5.058488 -1.081562 2.101977 58.121611 -7.338996 -6.976095 0.547933 0.000000 -0.042149 -51.336494 8.865549 -11.447029 42.189413 -5.975280 6.854439 -0.000000 -0.000000 -0.000000 0.000000 -0.000000 0.000000 -0.296043 9.377337 0.027952 -0.231818 -0.000000 0.728097 -1.488833 1.726804 1.487561 -2.174020 -1.855028 3.156894 -35.994878 -4.312749 2.619656 -24.395983 -4.961805 -2.422803 0.347727 -0.000000 0.759708 15.127552 -5.580405 12.944905 12.415824 3.710911 6.755693 -17.766668 6.206245 1.287275 -23.654914 8.361991 -0.132285 
0.000000 0.000000 0.000000 -0.000000 0.000000 -0.000000 -0.558471 0.000000 -0.073760 -7.191267 -1.243033 2.479704 57.384271 -6.775054 -7.064806 0.547933 0.000000 -0.042149 -49.264573 8.377775 -11.195545 42.935549 -5.425617 6.916995 -0.000000 -0.000000 -0.000000 0.000000 -0.000000 0.000000 -0.284776 8.517148 0.024742 -0.231818 -0.000000 0.728097 -0.784991 1.992645 0.820875 -1.496180 -1.879107 2.698355 -35.160465 -4.366326 2.442757 -24.333589 -5.198497 -2.448781 0.347727 -0.000000 0.759708 14.343616 -5.497062 12.265662 11.755252 3.569628 6.311839 -18.602447 6.109210 1.147049 -23.701074 8.121448 -0.156205 
0.000000 0.000000 0.000000 -0.000000 0.000000 -0.000000 -0.558471 0.000000 -0.073760 -9.487946 -1.432585 2.879644 56.596836 -6.170147 -7.151565 0.547933 0.000000 -0.042149 -47.032771 7.862710 -10.905219 43.732923 -4.836356 6.975938 -0.000000 -0.000000 -0.000000 0.000000 -0.000000 0.000000 -0.272796 7.596469 0.021503 -0.231818 -0.000000 0.728097 -0.027859 2.268169 0.103348 -0.770961 -1.910883 2.207946 -34.267476 -4.426516 2.254290 -24.266962 -5.451600 -2.476284 0.347727 -0.000000 0.759708 13.505526 -5.397588 11.539833 11.047199 3.424086 5.835108 -19.497111 6.007608 0.995419 -23.750518 7.864287 -0.181982 
